<svg xmlns="http://www.w3.org/2000/svg" xmlns:xlink="http://www.w3.org/1999/xlink" width="500" zoomAndPan="magnify" viewBox="0 0 375 374.999991" height="500" preserveAspectRatio="xMidYMid meet" version="1.0"><defs><g/><clipPath id="899639f3c8"><path d="M 132.199219 144.058594 L 246.949219 144.058594 L 246.949219 222.808594 L 132.199219 222.808594 Z M 132.199219 144.058594 " clip-rule="nonzero"/></clipPath></defs><rect x="-37.5" width="450" fill="#ffffff" y="-37.499999" height="449.999989" fill-opacity="1"/><rect x="-37.5" width="450" fill="#ff5757" y="-37.499999" height="449.999989" fill-opacity="1"/><g clip-path="url(#899639f3c8)"><path fill="#ffffff" d="M 163.566406 185.871094 C 172.214844 185.871094 179.246094 178.84375 179.246094 170.191406 C 179.246094 161.542969 172.214844 154.511719 163.566406 154.511719 C 154.914062 154.511719 147.886719 161.542969 147.886719 170.191406 C 147.886719 178.84375 154.914062 185.871094 163.566406 185.871094 Z M 226.285156 154.511719 L 184.472656 154.511719 L 184.472656 191.097656 L 142.660156 191.097656 L 142.660156 144.058594 L 132.207031 144.058594 L 132.207031 222.457031 L 142.660156 222.457031 L 142.660156 206.777344 L 236.738281 206.777344 L 236.738281 222.457031 L 247.191406 222.457031 L 247.191406 175.417969 C 247.191406 163.867188 237.835938 154.511719 226.285156 154.511719 Z M 226.285156 154.511719 " fill-opacity="1" fill-rule="nonzero"/></g><g fill="#ff5757" fill-opacity="1"><g transform="translate(186.895458, 189.71369)"><g><path d="M 28.21875 -25.6875 L 28.21875 0 L 20.34375 0 L 20.34375 -3.5 C 19.550781 -2.363281 18.46875 -1.445312 17.09375 -0.75 C 15.726562 -0.0625 14.21875 0.28125 12.5625 0.28125 C 10.601562 0.28125 8.867188 -0.15625 7.359375 -1.03125 C 5.859375 -1.90625 4.691406 -3.171875 3.859375 -4.828125 C 3.035156 -6.484375 2.625 -8.429688 2.625 -10.671875 L 2.625 -25.6875 L 10.453125 -25.6875 L 10.453125 -11.734375 C 10.453125 -10.015625 10.894531 -8.679688 11.78125 -7.734375 C 12.675781 -6.785156 13.875 -6.3125 15.375 -6.3125 C 16.90625 -6.3125 18.113281 -6.785156 19 -7.734375 C 19.894531 -8.679688 20.34375 -10.015625 20.34375 -11.734375 L 20.34375 -25.6875 Z M 28.21875 -25.6875 "/></g></g></g><g fill="#ff5757" fill-opacity="1"><g transform="translate(217.915004, 189.71369)"><g><path d="M 10.71875 -21.40625 C 11.644531 -22.8125 12.796875 -23.921875 14.171875 -24.734375 C 15.554688 -25.554688 17.09375 -25.96875 18.78125 -25.96875 L 18.78125 -17.625 L 16.625 -17.625 C 14.65625 -17.625 13.175781 -17.203125 12.1875 -16.359375 C 11.207031 -15.515625 10.71875 -14.035156 10.71875 -11.921875 L 10.71875 0 L 2.859375 0 L 2.859375 -25.6875 L 10.71875 -25.6875 Z M 10.71875 -21.40625 "/></g></g></g><g fill="#ff5757" fill-opacity="1"><g transform="translate(237.62717, 189.71369)"><g/></g></g><path stroke-linecap="butt" transform="matrix(0.75, 0, 0, 0.75, 108.269301, 134.558473)" fill="none" stroke-linejoin="miter" d="M 0.00030648 7.000162 L 81.484687 7.000162 " stroke="#ffffff" stroke-width="14" stroke-opacity="1" stroke-miterlimit="4"/></svg>